<svg width="26" height="26" viewBox="0 0 26 26" fill="none" xmlns="http://www.w3.org/2000/svg">
<path d="M18.1459 3.85667V2.16667C18.1459 1.72251 17.7775 1.35417 17.3334 1.35417C16.8892 1.35417 16.5209 1.72251 16.5209 2.16667V3.79167H9.47921V2.16667C9.47921 1.72251 9.11088 1.35417 8.66671 1.35417C8.22255 1.35417 7.85421 1.72251 7.85421 2.16667V3.85667C4.92921 4.1275 3.51004 5.87167 3.29338 8.46084C3.27171 8.775 3.53171 9.035 3.83504 9.035H22.165C22.4792 9.035 22.7392 8.76417 22.7067 8.46084C22.49 5.87167 21.0709 4.1275 18.1459 3.85667Z" fill="#1C1442"/>
<path d="M21.6667 10.66H4.33333C3.7375 10.66 3.25 11.1475 3.25 11.7433V18.4167C3.25 21.6667 4.875 23.8333 8.66667 23.8333H17.3333C21.125 23.8333 22.75 21.6667 22.75 18.4167V11.7433C22.75 11.1475 22.2625 10.66 21.6667 10.66ZM9.9775 19.7275C9.92333 19.7708 9.86917 19.825 9.815 19.8575C9.75 19.9008 9.685 19.9333 9.62 19.955C9.555 19.9875 9.49 20.0092 9.425 20.02C9.34917 20.0308 9.28417 20.0417 9.20833 20.0417C9.0675 20.0417 8.92667 20.0092 8.79667 19.955C8.65583 19.9008 8.5475 19.825 8.43917 19.7275C8.24417 19.5217 8.125 19.24 8.125 18.9583C8.125 18.6767 8.24417 18.395 8.43917 18.1892C8.5475 18.0917 8.65583 18.0158 8.79667 17.9617C8.99167 17.875 9.20833 17.8533 9.425 17.8967C9.49 17.9075 9.555 17.9292 9.62 17.9617C9.685 17.9833 9.75 18.0158 9.815 18.0592C9.86917 18.1025 9.92333 18.1458 9.9775 18.1892C10.1725 18.395 10.2917 18.6767 10.2917 18.9583C10.2917 19.24 10.1725 19.5217 9.9775 19.7275ZM9.9775 15.9358C9.77167 16.1308 9.49 16.25 9.20833 16.25C8.92667 16.25 8.645 16.1308 8.43917 15.9358C8.24417 15.73 8.125 15.4483 8.125 15.1667C8.125 14.885 8.24417 14.6033 8.43917 14.3975C8.7425 14.0942 9.21917 13.9967 9.62 14.17C9.76083 14.2242 9.88 14.3 9.9775 14.3975C10.1725 14.6033 10.2917 14.885 10.2917 15.1667C10.2917 15.4483 10.1725 15.73 9.9775 15.9358ZM13.7692 19.7275C13.5633 19.9225 13.2817 20.0417 13 20.0417C12.7183 20.0417 12.4367 19.9225 12.2308 19.7275C12.0358 19.5217 11.9167 19.24 11.9167 18.9583C11.9167 18.6767 12.0358 18.395 12.2308 18.1892C12.6317 17.7883 13.3683 17.7883 13.7692 18.1892C13.9642 18.395 14.0833 18.6767 14.0833 18.9583C14.0833 19.24 13.9642 19.5217 13.7692 19.7275ZM13.7692 15.9358C13.715 15.9792 13.6608 16.0225 13.6067 16.0658C13.5417 16.1092 13.4767 16.1417 13.4117 16.1633C13.3467 16.1958 13.2817 16.2175 13.2167 16.2283C13.1408 16.2392 13.0758 16.25 13 16.25C12.7183 16.25 12.4367 16.1308 12.2308 15.9358C12.0358 15.73 11.9167 15.4483 11.9167 15.1667C11.9167 14.885 12.0358 14.6033 12.2308 14.3975C12.3283 14.3 12.4475 14.2242 12.5883 14.17C12.9892 13.9967 13.4658 14.0942 13.7692 14.3975C13.9642 14.6033 14.0833 14.885 14.0833 15.1667C14.0833 15.4483 13.9642 15.73 13.7692 15.9358ZM17.5608 19.7275C17.355 19.9225 17.0733 20.0417 16.7917 20.0417C16.51 20.0417 16.2283 19.9225 16.0225 19.7275C15.8275 19.5217 15.7083 19.24 15.7083 18.9583C15.7083 18.6767 15.8275 18.395 16.0225 18.1892C16.4233 17.7883 17.16 17.7883 17.5608 18.1892C17.7558 18.395 17.875 18.6767 17.875 18.9583C17.875 19.24 17.7558 19.5217 17.5608 19.7275ZM17.5608 15.9358C17.5067 15.9792 17.4525 16.0225 17.3983 16.0658C17.3333 16.1092 17.2683 16.1417 17.2033 16.1633C17.1383 16.1958 17.0733 16.2175 17.0083 16.2283C16.9325 16.2392 16.8567 16.25 16.7917 16.25C16.51 16.25 16.2283 16.1308 16.0225 15.9358C15.8275 15.73 15.7083 15.4483 15.7083 15.1667C15.7083 14.885 15.8275 14.6033 16.0225 14.3975C16.1308 14.3 16.2392 14.2242 16.38 14.17C16.575 14.0833 16.7917 14.0617 17.0083 14.105C17.0733 14.1158 17.1383 14.1375 17.2033 14.17C17.2683 14.1917 17.3333 14.2242 17.3983 14.2675C17.4525 14.3108 17.5067 14.3542 17.5608 14.3975C17.7558 14.6033 17.875 14.885 17.875 15.1667C17.875 15.4483 17.7558 15.73 17.5608 15.9358Z" fill="#1C1442"/>
</svg>
