<svg width="26" height="26" viewBox="0 0 26 26" fill="none" xmlns="http://www.w3.org/2000/svg">
<path d="M2.16699 5.95825C2.16699 5.52728 2.3382 5.11395 2.64294 4.8092C2.94769 4.50446 3.36102 4.33325 3.79199 4.33325H22.2087C22.6396 4.33325 23.053 4.50446 23.3577 4.8092C23.6625 5.11395 23.8337 5.52728 23.8337 5.95825C23.8337 6.38923 23.6625 6.80255 23.3577 7.1073C23.053 7.41205 22.6396 7.58325 22.2087 7.58325H3.79199C3.36102 7.58325 2.94769 7.41205 2.64294 7.1073C2.3382 6.80255 2.16699 6.38923 2.16699 5.95825ZM6.50033 12.4583C6.50033 12.0273 6.67153 11.614 6.97628 11.3092C7.28102 11.0045 7.69435 10.8333 8.12533 10.8333H17.8753C18.3063 10.8333 18.7196 11.0045 19.0244 11.3092C19.3291 11.614 19.5003 12.0273 19.5003 12.4583C19.5003 12.8892 19.3291 13.3026 19.0244 13.6073C18.7196 13.912 18.3063 14.0833 17.8753 14.0833H8.12533C7.69435 14.0833 7.28102 13.912 6.97628 13.6073C6.67153 13.3026 6.50033 12.8892 6.50033 12.4583ZM11.3753 17.3333C10.9444 17.3333 10.531 17.5045 10.2263 17.8092C9.92153 18.114 9.75033 18.5273 9.75033 18.9583C9.75033 19.3892 9.92153 19.8026 10.2263 20.1073C10.531 20.412 10.9444 20.5833 11.3753 20.5833H14.6253C15.0563 20.5833 15.4696 20.412 15.7744 20.1073C16.0791 19.8026 16.2503 19.3892 16.2503 18.9583C16.2503 18.5273 16.0791 18.114 15.7744 17.8092C15.4696 17.5045 15.0563 17.3333 14.6253 17.3333H11.3753Z" fill="#1C1442"/>
</svg>
