<svg width="24" height="24" viewBox="0 0 24 24" fill="none" xmlns="http://www.w3.org/2000/svg">
<path d="M6.88 18.9C6.47 18.9 6.13 18.56 6.13 18.15V16.08C6.13 15.67 6.47 15.33 6.88 15.33C7.29 15.33 7.63 15.67 7.63 16.08V18.15C7.63 18.57 7.29 18.9 6.88 18.9Z" fill="#53545C"/>
<path d="M12 18.9C11.59 18.9 11.25 18.56 11.25 18.15V14C11.25 13.59 11.59 13.25 12 13.25C12.41 13.25 12.75 13.59 12.75 14V18.15C12.75 18.57 12.41 18.9 12 18.9Z" fill="#53545C"/>
<path d="M17.12 18.9C16.71 18.9 16.37 18.56 16.37 18.15V11.93C16.37 11.52 16.71 11.18 17.12 11.18C17.53 11.18 17.87 11.52 17.87 11.93V18.15C17.87 18.57 17.54 18.9 17.12 18.9Z" fill="#53545C"/>
<path d="M6.88 13.18C6.54 13.18 6.24 12.95 6.15 12.61C6.05 12.21 6.29 11.8 6.7 11.7C10.38 10.78 13.62 8.77001 16.09 5.90001L16.55 5.36001C16.82 5.05001 17.29 5.01001 17.61 5.28001C17.92 5.55001 17.96 6.02001 17.69 6.34001L17.23 6.88001C14.56 10 11.04 12.17 7.06 13.16C7 13.18 6.94 13.18 6.88 13.18Z" fill="#53545C"/>
<path d="M17.12 9.52001C16.71 9.52001 16.37 9.18001 16.37 8.77001V6.60001H14.19C13.78 6.60001 13.44 6.26001 13.44 5.85001C13.44 5.44001 13.78 5.10001 14.19 5.10001H17.12C17.53 5.10001 17.87 5.44001 17.87 5.85001V8.78001C17.87 9.19001 17.54 9.52001 17.12 9.52001Z" fill="#53545C"/>
<path d="M15 22.75H9C3.57 22.75 1.25 20.43 1.25 15V9C1.25 3.57 3.57 1.25 9 1.25H15C20.43 1.25 22.75 3.57 22.75 9V15C22.75 20.43 20.43 22.75 15 22.75ZM9 2.75C4.39 2.75 2.75 4.39 2.75 9V15C2.75 19.61 4.39 21.25 9 21.25H15C19.61 21.25 21.25 19.61 21.25 15V9C21.25 4.39 19.61 2.75 15 2.75H9Z" fill="#53545C"/>
</svg>
